<svg xmlns="http://www.w3.org/2000/svg" xmlns:xlink="http://www.w3.org/1999/xlink" width="500" zoomAndPan="magnify" viewBox="0 0 375 374.999991" height="500" preserveAspectRatio="xMidYMid meet" version="1.0"><defs><g/><clipPath id="id1"><path d="M 79 69 L 277 69 L 277 268 L 79 268 Z M 79 69 " clip-rule="nonzero"/></clipPath><clipPath id="id2"><path d="M 319.378906 191.222656 L 150.347656 305.433594 L 26.058594 121.488281 L 195.089844 7.277344 Z M 319.378906 191.222656 " clip-rule="nonzero"/></clipPath><clipPath id="id3"><path d="M 195.246094 7.511719 L 26.214844 121.71875 L 150.503906 305.667969 L 319.535156 191.457031 Z M 195.246094 7.511719 " clip-rule="nonzero"/></clipPath><clipPath id="id4"><path d="M 95 50 L 290 50 L 290 265 L 95 265 Z M 95 50 " clip-rule="nonzero"/></clipPath><clipPath id="id5"><path d="M 319.378906 191.222656 L 150.347656 305.433594 L 26.058594 121.488281 L 195.089844 7.277344 Z M 319.378906 191.222656 " clip-rule="nonzero"/></clipPath><clipPath id="id6"><path d="M 195.246094 7.511719 L 26.214844 121.71875 L 150.503906 305.667969 L 319.535156 191.457031 Z M 195.246094 7.511719 " clip-rule="nonzero"/></clipPath><clipPath id="id7"><path d="M 112.5 89.042969 L 262.5 89.042969 L 262.5 239.042969 L 112.5 239.042969 Z M 112.5 89.042969 " clip-rule="nonzero"/></clipPath></defs><g clip-path="url(#id1)"><g clip-path="url(#id2)"><g clip-path="url(#id3)"><path fill="#3e4685" d="M 262.347656 112.851562 C 270.589844 124.582031 274.535156 138.894531 275.878906 153.160156 C 277.433594 169.664062 275.644531 186.589844 269.605469 202.007812 C 260.707031 224.710938 242.71875 243.351562 221.136719 254.660156 C 198.257812 266.644531 170.863281 270.574219 145.984375 263.503906 C 127.542969 258.261719 109.304688 244.6875 107.207031 225.621094 C 106.402344 218.28125 108.070312 210.859375 107.46875 203.5 C 106.3125 189.265625 97.023438 177.242188 89.519531 165.082031 C 82.015625 152.925781 75.933594 137.777344 81.632812 124.703125 C 86.179688 114.265625 96.898438 108.253906 106.332031 101.898438 C 120.796875 92.148438 133.839844 79.933594 149.90625 73.148438 C 183.621094 58.910156 242.3125 84.347656 262.347656 112.851562 " fill-opacity="1" fill-rule="nonzero"/></g></g></g><g clip-path="url(#id4)"><g clip-path="url(#id5)"><g clip-path="url(#id6)"><path fill="#3e4685" d="M 239.808594 242.578125 C 243.738281 239.921875 247.710938 237.015625 251.738281 233.839844 C 271.808594 218.027344 283.183594 202.921875 287.523438 186.300781 C 292.652344 166.679688 287.238281 143.652344 273.042969 124.699219 C 261.773438 109.652344 245.105469 96.640625 222.085938 84.929688 C 215.394531 81.523438 208.003906 78.574219 200.855469 75.722656 C 188.421875 70.761719 175.566406 65.636719 165.378906 57.792969 C 150.984375 46.714844 135.488281 47.902344 124.941406 60.894531 C 115.339844 72.71875 114.234375 89.203125 114.238281 100.570312 C 114.238281 103.839844 114.324219 107.179688 114.40625 110.402344 C 114.671875 120.828125 114.949219 131.609375 112.417969 141.796875 C 110.664062 148.863281 107.535156 155.769531 104.507812 162.453125 C 99.5625 173.363281 94.453125 184.644531 95.359375 196.722656 C 96.363281 210.132812 104.792969 221.691406 111.042969 229.222656 C 123.632812 244.375 137.195312 254.679688 151.355469 259.847656 C 167.222656 265.640625 186.171875 265.675781 204.714844 259.949219 C 216.273438 256.382812 227.847656 250.660156 239.808594 242.578125 Z M 132.457031 55.523438 C 143.296875 48.195312 155.691406 51.863281 164.640625 58.75 C 174.960938 66.699219 187.898438 71.855469 200.40625 76.847656 C 207.53125 79.691406 214.898438 82.628906 221.539062 86.007812 C 244.390625 97.636719 260.921875 110.527344 272.074219 125.421875 C 286.050781 144.082031 291.390625 166.726562 286.355469 185.992188 C 282.082031 202.34375 270.84375 217.246094 250.988281 232.886719 C 234.820312 245.628906 219.570312 254.097656 204.355469 258.792969 C 186.066406 264.441406 167.390625 264.410156 151.765625 258.710938 C 137.808594 253.617188 124.421875 243.4375 111.972656 228.449219 C 105.828125 221.046875 97.542969 209.699219 96.566406 196.636719 C 95.683594 184.867188 100.503906 174.222656 105.609375 162.953125 C 108.65625 156.222656 111.8125 149.265625 113.59375 142.089844 C 116.164062 131.746094 115.882812 120.882812 115.613281 110.375 C 115.53125 107.15625 115.449219 103.828125 115.445312 100.574219 C 115.445312 89.390625 116.523438 73.1875 125.882812 61.660156 C 127.972656 59.082031 130.179688 57.058594 132.457031 55.523438 " fill-opacity="1" fill-rule="nonzero"/></g></g></g><path fill="#ffffff" d="M 148.070312 193.226562 L 148.070312 198.226562 L 226.929688 198.226562 L 226.929688 193.226562 L 220.882812 193.226562 L 220.882812 152.285156 L 226.929688 152.285156 L 226.929688 147.285156 L 148.070312 147.285156 L 148.070312 152.285156 L 154.117188 152.285156 L 154.117188 193.226562 Z M 169.777344 193.226562 L 169.777344 152.285156 L 179.667969 152.285156 L 179.667969 193.226562 Z M 195.332031 193.226562 L 195.332031 152.285156 L 205.222656 152.285156 L 205.222656 193.226562 Z M 215.882812 152.285156 L 215.882812 193.226562 L 210.222656 193.226562 L 210.222656 152.285156 Z M 190.332031 152.285156 L 190.332031 193.226562 L 184.667969 193.226562 L 184.667969 152.285156 Z M 159.117188 152.285156 L 164.777344 152.285156 L 164.777344 193.226562 L 159.117188 193.226562 Z M 159.117188 152.285156 " fill-opacity="1" fill-rule="nonzero"/><path fill="#ffffff" d="M 231.242188 203.210938 L 143.757812 203.210938 C 142.375 203.210938 141.257812 204.332031 141.257812 205.710938 C 141.257812 207.089844 142.375 208.210938 143.757812 208.210938 L 231.242188 208.210938 C 232.625 208.210938 233.742188 207.089844 233.742188 205.710938 C 233.742188 204.332031 232.625 203.210938 231.242188 203.210938 Z M 231.242188 203.210938 " fill-opacity="1" fill-rule="nonzero"/><path fill="#ffffff" d="M 233.707031 139.464844 C 233.699219 139.402344 233.699219 139.335938 233.683594 139.277344 C 233.667969 139.191406 233.636719 139.113281 233.609375 139.03125 C 233.585938 138.957031 233.570312 138.882812 233.539062 138.816406 C 233.507812 138.738281 233.460938 138.671875 233.421875 138.601562 C 233.386719 138.53125 233.351562 138.460938 233.308594 138.394531 C 233.265625 138.332031 233.210938 138.273438 233.160156 138.214844 C 233.105469 138.148438 233.058594 138.082031 232.996094 138.023438 C 232.949219 137.976562 232.894531 137.941406 232.847656 137.898438 C 232.769531 137.832031 232.695312 137.765625 232.609375 137.710938 C 232.601562 137.707031 232.59375 137.699219 232.585938 137.691406 L 188.84375 109.855469 C 188.023438 109.332031 186.976562 109.332031 186.160156 109.855469 L 142.414062 137.691406 C 142.40625 137.699219 142.398438 137.707031 142.390625 137.710938 C 142.304688 137.765625 142.230469 137.832031 142.152344 137.898438 C 142.105469 137.941406 142.050781 137.976562 142.003906 138.023438 C 141.945312 138.082031 141.894531 138.148438 141.839844 138.214844 C 141.789062 138.273438 141.734375 138.332031 141.691406 138.394531 C 141.648438 138.460938 141.617188 138.53125 141.578125 138.601562 C 141.539062 138.671875 141.492188 138.738281 141.460938 138.816406 C 141.433594 138.882812 141.414062 138.957031 141.390625 139.03125 C 141.363281 139.113281 141.332031 139.191406 141.316406 139.277344 C 141.300781 139.335938 141.300781 139.402344 141.292969 139.464844 C 141.277344 139.566406 141.261719 139.667969 141.261719 139.773438 C 141.261719 139.78125 141.257812 139.789062 141.257812 139.800781 C 141.257812 139.855469 141.269531 139.90625 141.273438 139.960938 C 141.28125 140.0625 141.285156 140.164062 141.304688 140.265625 C 141.320312 140.339844 141.34375 140.414062 141.363281 140.488281 C 141.386719 140.570312 141.410156 140.652344 141.441406 140.730469 C 141.476562 140.820312 141.523438 140.898438 141.566406 140.980469 C 141.59375 141.035156 141.613281 141.089844 141.648438 141.144531 C 141.652344 141.152344 141.664062 141.160156 141.667969 141.171875 C 141.71875 141.246094 141.777344 141.3125 141.835938 141.382812 C 141.882812 141.441406 141.929688 141.503906 141.980469 141.558594 C 142.023438 141.601562 142.074219 141.636719 142.121094 141.675781 C 142.199219 141.742188 142.273438 141.8125 142.355469 141.871094 C 142.390625 141.894531 142.433594 141.910156 142.46875 141.933594 C 142.570312 141.996094 142.667969 142.054688 142.777344 142.101562 C 142.820312 142.121094 142.871094 142.128906 142.917969 142.148438 C 143.023438 142.183594 143.128906 142.222656 143.238281 142.246094 C 143.285156 142.253906 143.335938 142.257812 143.382812 142.261719 C 143.5 142.28125 143.613281 142.296875 143.730469 142.296875 C 143.742188 142.296875 143.75 142.300781 143.757812 142.300781 L 231.242188 142.300781 C 231.4375 142.300781 231.628906 142.273438 231.808594 142.230469 C 231.859375 142.21875 231.90625 142.199219 231.957031 142.183594 C 232.089844 142.144531 232.21875 142.097656 232.34375 142.035156 C 232.398438 142.007812 232.453125 141.976562 232.507812 141.945312 C 232.625 141.875 232.734375 141.796875 232.839844 141.710938 C 232.882812 141.675781 232.925781 141.644531 232.96875 141.605469 C 233.105469 141.472656 233.230469 141.324219 233.335938 141.164062 C 233.339844 141.15625 233.347656 141.152344 233.351562 141.144531 C 233.386719 141.089844 233.40625 141.03125 233.433594 140.976562 C 233.480469 140.898438 233.523438 140.816406 233.558594 140.730469 C 233.59375 140.652344 233.613281 140.566406 233.636719 140.484375 C 233.65625 140.410156 233.679688 140.339844 233.695312 140.261719 C 233.714844 140.164062 233.71875 140.0625 233.726562 139.960938 C 233.730469 139.90625 233.742188 139.855469 233.742188 139.800781 C 233.742188 139.789062 233.738281 139.78125 233.738281 139.769531 C 233.738281 139.667969 233.722656 139.566406 233.707031 139.464844 Z M 187.5 114.929688 L 222.65625 137.300781 L 152.34375 137.300781 Z M 187.5 114.929688 " fill-opacity="1" fill-rule="nonzero"/><g clip-path="url(#id7)"><path fill="#ffffff" d="M 187.5 89.042969 C 146.144531 89.042969 112.5 122.6875 112.5 164.042969 C 112.5 205.398438 146.144531 239.042969 187.5 239.042969 C 228.855469 239.042969 262.5 205.398438 262.5 164.042969 C 262.5 122.6875 228.855469 89.042969 187.5 89.042969 Z M 187.5 234.042969 C 148.902344 234.042969 117.5 202.644531 117.5 164.042969 C 117.5 125.445312 148.902344 94.042969 187.5 94.042969 C 226.097656 94.042969 257.5 125.445312 257.5 164.042969 C 257.5 202.644531 226.097656 234.042969 187.5 234.042969 Z M 187.5 234.042969 " fill-opacity="1" fill-rule="nonzero"/></g><g fill="#000000" fill-opacity="1"><g transform="translate(92.525157, 330.639235)"><g><path d="M 17.0625 0.410156 C 21.195312 0.410156 25.902344 -0.898438 27.621094 -2.046875 L 28.277344 -6.792969 L 27.867188 -6.832031 C 26.148438 -2.25 22.425781 -0.328125 18.167969 -0.328125 C 9.042969 -0.328125 4.417969 -7.816406 4.460938 -15.222656 C 4.542969 -23.816406 9.984375 -28.113281 16.449219 -28.113281 C 22.054688 -28.113281 25.535156 -25.738281 27.046875 -22.507812 L 27.375 -22.585938 L 27.210938 -26.84375 C 26.1875 -27.417969 22.21875 -28.929688 18.210938 -28.929688 C 9.003906 -28.929688 2.046875 -22.875 2.046875 -13.667969 C 2.046875 -5.03125 8.0625 0.410156 17.0625 0.410156 Z M 17.0625 0.410156 "/></g></g></g><g fill="#000000" fill-opacity="1"><g transform="translate(122.430455, 330.639235)"><g><path d="M 2.25 0 L 21.851562 0 L 22.21875 -4.871094 L 21.851562 -4.953125 C 20.5 -1.515625 18.332031 -0.53125 14.648438 -0.53125 L 7.816406 -0.53125 C 6.75 -0.53125 6.179688 -1.105469 6.179688 -2.167969 L 6.179688 -14.976562 L 12.890625 -14.976562 C 17.144531 -14.976562 18.046875 -14.035156 18.375 -12.523438 L 18.824219 -12.523438 L 18.824219 -17.964844 L 18.375 -17.964844 C 18.046875 -16.449219 17.144531 -15.507812 12.890625 -15.507812 L 6.179688 -15.507812 L 6.179688 -28.113281 L 13.542969 -28.113281 C 17.226562 -28.113281 19.476562 -26.882812 20.746094 -23.691406 L 21.113281 -23.773438 L 20.625 -28.644531 L 2.25 -28.644531 L 2.25 -28.195312 C 3.394531 -27.90625 3.886719 -27.210938 3.886719 -23.445312 L 3.886719 -5.195312 C 3.886719 -1.433594 3.394531 -0.738281 2.25 -0.449219 Z M 2.25 0 "/></g></g></g><g fill="#000000" fill-opacity="1"><g transform="translate(146.281051, 330.639235)"><g><path d="M 23.898438 0.328125 L 24.429688 0.328125 L 24.429688 -23.445312 C 24.429688 -27.210938 24.921875 -27.90625 26.066406 -28.195312 L 26.066406 -28.644531 L 21.359375 -28.644531 L 21.359375 -28.195312 C 22.875 -27.867188 23.816406 -26.964844 23.816406 -22.710938 L 23.816406 -3.722656 L 5.238281 -28.644531 L 1.839844 -28.644531 L 1.839844 -28.195312 C 3.316406 -27.90625 3.96875 -27.210938 3.96875 -23.445312 L 3.96875 -5.195312 C 3.96875 -1.433594 3.476562 -0.738281 2.332031 -0.449219 L 2.332031 0 L 7.039062 0 L 7.039062 -0.449219 C 5.523438 -0.777344 4.582031 -1.675781 4.582031 -5.933594 L 4.582031 -25.65625 Z M 23.898438 0.328125 "/></g></g></g><g fill="#000000" fill-opacity="1"><g transform="translate(174.181757, 330.639235)"><g><path d="M 8.632812 0 L 14.238281 0 L 14.238281 -0.449219 C 13.09375 -0.738281 12.601562 -1.433594 12.601562 -5.195312 L 12.601562 -28.113281 L 15.34375 -28.113281 C 19.027344 -28.113281 20.417969 -27.128906 21.648438 -24.511719 L 22.015625 -24.59375 L 21.769531 -28.644531 L 1.023438 -28.644531 L 0.777344 -24.59375 L 1.144531 -24.511719 C 2.375 -27.128906 3.765625 -28.113281 7.449219 -28.113281 L 10.269531 -28.113281 L 10.269531 -5.195312 C 10.269531 -1.433594 9.78125 -0.738281 8.632812 -0.449219 Z M 8.632812 0 "/></g></g></g><g fill="#000000" fill-opacity="1"><g transform="translate(197.050518, 330.639235)"><g/></g></g><g fill="#000000" fill-opacity="1"><g transform="translate(206.050746, 330.639235)"><g><path d="M 2.25 0 L 12.5625 0 C 21.566406 0 27.375 -6.464844 27.335938 -14.8125 C 27.292969 -22.136719 22.21875 -28.644531 11.582031 -28.644531 L 2.25 -28.644531 L 2.25 -28.195312 C 3.394531 -27.90625 3.886719 -27.210938 3.886719 -23.445312 L 3.886719 -5.195312 C 3.886719 -1.433594 3.394531 -0.738281 2.25 -0.449219 Z M 6.179688 -3.558594 L 6.179688 -28.113281 L 10.1875 -28.113281 C 19.355469 -28.113281 24.757812 -21.523438 24.757812 -13.585938 C 24.757812 -5.277344 20.5 -0.574219 12.683594 -0.574219 L 8.839844 -0.574219 C 6.589844 -0.574219 6.179688 -1.636719 6.179688 -3.558594 Z M 6.179688 -3.558594 "/></g></g></g><g fill="#000000" fill-opacity="1"><g transform="translate(235.424215, 330.639235)"><g><path d="M 2.25 0 L 7.816406 0 L 7.816406 -0.449219 C 6.671875 -0.738281 6.179688 -1.433594 6.179688 -5.195312 L 6.179688 -11.457031 L 10.105469 -11.457031 C 16.859375 -11.457031 21.15625 -14.648438 21.15625 -20.460938 C 21.15625 -25.125 17.839844 -28.644531 10.230469 -28.644531 L 2.25 -28.644531 L 2.25 -28.195312 C 3.394531 -27.90625 3.886719 -27.210938 3.886719 -23.445312 L 3.886719 -5.195312 C 3.886719 -1.433594 3.394531 -0.738281 2.25 -0.449219 Z M 6.179688 -12.03125 L 6.179688 -27.988281 C 6.914062 -28.03125 7.652344 -28.070312 8.386719 -28.070312 C 15.097656 -28.070312 18.617188 -24.960938 18.617188 -19.640625 C 18.617188 -14.566406 15.261719 -12.03125 10.105469 -12.03125 Z M 6.179688 -12.03125 "/></g></g></g><g fill="#000000" fill-opacity="1"><g transform="translate(257.720234, 330.639235)"><g><path d="M 23.121094 0.285156 C 24.019531 0.285156 24.839844 0.121094 25.125 0 L 25.125 -0.410156 C 24.878906 -0.367188 24.675781 -0.328125 24.429688 -0.328125 C 23.121094 -0.328125 21.933594 -2.128906 20.214844 -6.464844 C 18.414062 -11.046875 17.757812 -14.199219 12.277344 -14.976562 C 17.515625 -15.507812 20.5 -18.496094 20.5 -22.425781 C 20.5 -26.394531 17.390625 -28.644531 9.78125 -28.644531 L 2.25 -28.644531 L 2.25 -28.195312 C 3.394531 -27.90625 3.886719 -27.210938 3.886719 -23.445312 L 3.886719 -5.195312 C 3.886719 -1.433594 3.394531 -0.738281 2.25 -0.449219 L 2.25 0 L 7.816406 0 L 7.816406 -0.449219 C 6.671875 -0.738281 6.179688 -1.433594 6.179688 -5.195312 L 6.179688 -14.894531 L 9.003906 -14.894531 C 15.34375 -14.894531 15.835938 -11.089844 18.128906 -5.8125 C 19.722656 -2.128906 20.171875 0.285156 23.121094 0.285156 Z M 6.179688 -15.46875 L 6.179688 -28.03125 C 6.914062 -28.070312 7.570312 -28.113281 8.226562 -28.113281 C 15.34375 -28.113281 17.964844 -25.535156 17.964844 -21.523438 C 17.964844 -17.675781 15.261719 -15.46875 10.515625 -15.46875 Z M 6.179688 -15.46875 "/></g></g></g></svg>